<?xml version="1.0" encoding="UTF-8"?>
<svg version="1.1" xmlns="http://www.w3.org/2000/svg" width="500" height="205">
<path d="M0 0 C1.18529297 -0.01160156 2.37058594 -0.02320313 3.59179688 -0.03515625 C12.79280806 -0.00487316 21.84748725 0.93308464 30.0625 5.375 C29.49228625 12.33160771 28.04947306 18.68927305 26.0625 25.375 C22.51537446 26.24954992 20.98621444 26.35592861 17.3125 25.4375 C7.40396869 23.01024233 -4.64715342 22.8843225 -13.9375 27.375 C-14.63230469 27.65601562 -15.32710937 27.93703125 -16.04296875 28.2265625 C-18.42084657 29.66799771 -18.90771964 30.8165679 -19.9375 33.375 C-20.27910156 34.16777344 -20.62070313 34.96054688 -20.97265625 35.77734375 C-21.31167969 36.61394531 -21.65070312 37.45054688 -22 38.3125 C-22.34160156 39.14652344 -22.68320312 39.98054688 -23.03515625 40.83984375 C-27.10394497 52.27120253 -26.77981628 69.2831986 -21.9375 80.375 C-18.6693423 86.36662246 -14.5071202 90.35492962 -7.9375 92.375 C-4.82726273 92.61042037 -1.74174103 92.56346369 1.375 92.5 C4.241875 92.45875 7.10875 92.4175 10.0625 92.375 C10.0625 85.445 10.0625 78.515 10.0625 71.375 C4.7825 71.375 -0.4975 71.375 -5.9375 71.375 C-5.9375 64.115 -5.9375 56.855 -5.9375 49.375 C7.2625 49.375 20.4625 49.375 34.0625 49.375 C34.0625 68.845 34.0625 88.315 34.0625 108.375 C17.12073433 116.84588283 -1.73333243 120.15047988 -20.5 114.75 C-23.35546875 113.6328125 -23.35546875 113.6328125 -25.9375 112.375 C-27.29294922 111.72144531 -27.29294922 111.72144531 -28.67578125 111.0546875 C-39.6097741 105.1260336 -45.00386328 96.34984777 -48.7980957 84.7421875 C-51.09588045 76.37088737 -51.45249341 68.24484588 -51.375 59.625 C-51.37093643 58.56717316 -51.37093643 58.56717316 -51.36679077 57.48797607 C-51.26808087 40.56319162 -49.00702905 24.09093819 -36.94140625 11.19140625 C-26.29287132 1.53922547 -13.89020049 -0.13551415 0 0 Z " fill="#140F12" transform="translate(84.9375,42.625)"/>
<path d="M0 0 C1.00023193 0.00523682 2.00046387 0.01047363 3.03100586 0.01586914 C4.00303955 0.0183667 4.97507324 0.02086426 5.9765625 0.0234375 C7.84235962 0.03709351 7.84235962 0.03709351 9.74584961 0.05102539 C13.68522461 0.07165039 17.62459961 0.09227539 21.68334961 0.11352539 C21.68334961 13.64352539 21.68334961 27.17352539 21.68334961 41.11352539 C31.91334961 41.11352539 42.14334961 41.11352539 52.68334961 41.11352539 C52.68334961 27.58352539 52.68334961 14.05352539 52.68334961 0.11352539 C60.93334961 0.11352539 69.18334961 0.11352539 77.68334961 0.11352539 C77.70589773 14.30808922 77.72426301 28.50264125 77.73516178 42.69721889 C77.74039133 49.28757324 77.74749028 55.87791476 77.75878906 62.46826172 C77.76961539 68.82244557 77.7756259 75.17661704 77.77822685 81.5308094 C77.78008156 83.9610215 77.78370304 86.39123288 77.78907967 88.82143974 C77.79628671 92.21235521 77.79734069 95.6032188 77.796875 98.99414062 C77.80047028 100.00977585 77.80406555 101.02541107 77.80776978 102.07182312 C77.80639511 102.99034058 77.80502045 103.90885803 77.80360413 104.85520935 C77.80452592 105.65809104 77.80544771 106.46097273 77.80639744 107.28818417 C77.68334961 109.11352539 77.68334961 109.11352539 76.68334961 110.11352539 C74.90263715 110.20078762 73.11851821 110.2205158 71.33569336 110.21118164 C70.36365967 110.20868408 69.39162598 110.20618652 68.39013672 110.20361328 C67.14627197 110.19450928 65.90240723 110.18540527 64.62084961 110.17602539 C60.68147461 110.15540039 56.74209961 110.13477539 52.68334961 110.11352539 C52.68334961 94.60352539 52.68334961 79.09352539 52.68334961 63.11352539 C42.45334961 63.11352539 32.22334961 63.11352539 21.68334961 63.11352539 C21.68334961 78.62352539 21.68334961 94.13352539 21.68334961 110.11352539 C17.74397461 110.13415039 13.80459961 110.15477539 9.74584961 110.17602539 C7.88005249 110.1896814 7.88005249 110.1896814 5.9765625 110.20361328 C5.00452881 110.20611084 4.03249512 110.2086084 3.03100586 110.21118164 C1.53065796 110.21903687 1.53065796 110.21903687 0 110.22705078 C-2.31665039 110.11352539 -2.31665039 110.11352539 -3.31665039 109.11352539 C-3.41427562 107.71174209 -3.44296697 106.30508086 -3.44363403 104.89990234 C-3.44645386 103.9912442 -3.44927368 103.08258606 -3.45217896 102.14639282 C-3.45015472 101.14167938 -3.44813049 100.13696594 -3.44604492 99.10180664 C-3.44779724 98.04988129 -3.44954956 96.99795593 -3.45135498 95.91415405 C-3.45577582 92.41809465 -3.45283469 88.92208536 -3.44946289 85.42602539 C-3.45013586 83.00846344 -3.45110583 80.59090156 -3.45236206 78.17333984 C-3.45383935 73.09903318 -3.45168348 68.02474408 -3.44702148 62.95043945 C-3.44132419 56.42967836 -3.44460303 49.90895843 -3.45059395 43.38819885 C-3.45419873 38.39383633 -3.45306136 33.39948366 -3.45046616 28.40512085 C-3.44979666 26.00003047 -3.45062611 23.59493921 -3.45294571 21.18984985 C-3.45547087 17.83495704 -3.45163356 14.48013189 -3.44604492 11.12524414 C-3.44806915 10.1205307 -3.45009338 9.11581726 -3.45217896 8.08065796 C-3.44794922 6.71767075 -3.44794922 6.71767075 -3.44363403 5.32714844 C-3.44325701 4.53293991 -3.44287998 3.73873138 -3.44249153 2.92045593 C-3.24915926 0.14443228 -2.7772421 0.13609628 0 0 Z " fill="#140F12" transform="translate(227.316650390625,46.886474609375)"/>
<path d="M0 0 C7.92 0 15.84 0 24 0 C25 1 25 1 25.11352539 4.32641602 C25.11336629 5.80225556 25.10767314 7.27810069 25.09765625 8.75390625 C25.0962413 9.52935287 25.09482635 10.3047995 25.09336853 11.10374451 C25.08775345 13.59003494 25.07519846 16.0762366 25.0625 18.5625 C25.05748694 20.24413933 25.0529237 21.92578006 25.04882812 23.60742188 C25.03777913 27.73831566 25.02050445 31.86914276 25 36 C25.54342041 35.79141357 26.08684082 35.58282715 26.64672852 35.36791992 C27.72071899 34.95956909 27.72071899 34.95956909 28.81640625 34.54296875 C29.87903687 34.13727661 29.87903687 34.13727661 30.96313477 33.72338867 C40.03576681 30.50126129 49.20073579 31.5555017 58 35 C64.1468965 37.9552387 67.22238448 42.94279026 70 49 C72.39224496 56.20106279 72.33251134 63.20972543 72.3125 70.75 C72.32861328 71.94882813 72.34472656 73.14765625 72.36132812 74.3828125 C72.36769542 86.12409899 70.9184225 97.68891028 62.5546875 106.52734375 C56.65527762 111.85534482 50.38574014 112.38852364 42.8125 112.375 C41.97332031 112.37483887 41.13414062 112.37467773 40.26953125 112.37451172 C32.25882837 112.22771064 25.70240711 110.46827141 19 106 C18.67 107.32 18.34 108.64 18 110 C12.06 110 6.12 110 0 110 C0 73.7 0 37.4 0 0 Z M24 56 C24 66.89 24 77.78 24 89 C30.53994747 91.80283463 34.1818452 93.00538893 41 92 C44.84291872 90.07854064 45.73562242 88.66723865 47.3125 84.6875 C49.37716179 74.10610834 49.0791336 63.79855599 43.5 54.5 C36.99569348 50.59741609 30.29594417 52.85202792 24 56 Z " fill="#140F12" transform="translate(394,47)"/>
<path d="M0 0 C8.25 0 16.5 0 25 0 C25.03738281 3.70734375 25.07476562 7.4146875 25.11328125 11.234375 C25.15948234 14.8220004 25.2107213 18.40952088 25.26245117 21.99707031 C25.29572069 24.49179721 25.32374623 26.98659975 25.34643555 29.48144531 C25.3799435 33.06608335 25.43225911 36.65002692 25.48828125 40.234375 C25.49467117 41.35116638 25.5010611 42.46795776 25.50764465 43.61859131 C25.53733589 45.17975677 25.53733589 45.17975677 25.56762695 46.77246094 C25.57873001 47.68735291 25.58983307 48.60224487 25.60127258 49.54486084 C26.07515287 52.46274909 26.99150179 53.8591915 29 56 C31.03150965 56.59419322 31.03150965 56.59419322 33.25 56.4375 C33.97703125 56.43621094 34.7040625 56.43492187 35.453125 56.43359375 C38.85552004 55.95658976 38.85552004 55.95658976 45 53 C45.33 35.51 45.66 18.02 46 0 C53.92 0 61.84 0 70 0 C70 24.75 70 49.5 70 75 C64.39 75 58.78 75 53 75 C52.34 74.01 51.68 73.02 51 72 C50.29359375 72.3609375 49.5871875 72.721875 48.859375 73.09375 C41.62825641 76.36410514 35.57618162 77.49415437 27.6875 77.5 C26.85250977 77.50580078 26.01751953 77.51160156 25.15722656 77.51757812 C17.82995645 77.3720225 10.88243336 75.73795172 5.30609131 70.60958862 C-0.68547794 63.22575441 -0.54112115 54.14864499 -0.390625 45.1171875 C-0.38496521 43.82177032 -0.37930542 42.52635315 -0.37347412 41.19168091 C-0.35835107 37.78185981 -0.31918942 34.37274267 -0.2746582 30.9631958 C-0.23341339 27.47035235 -0.21540143 23.97739285 -0.1953125 20.484375 C-0.15267794 13.65593528 -0.08244169 6.82807412 0 0 Z " fill="#140F12" transform="translate(314,82)"/>
<path d="M0 0 C7.92 0 15.84 0 24 0 C24 6.93 24 13.86 24 21 C29.22063275 20.96042843 29.22063275 20.96042843 34.44116211 20.90991211 C36.29433759 20.90276055 38.14749308 20.9497148 40 21 C41 22 41 22 41.11352539 23.94946289 C41.10828857 24.7821167 41.10305176 25.61477051 41.09765625 26.47265625 C41.09443359 27.37177734 41.09121094 28.27089844 41.08789062 29.19726562 C41.07532227 30.61555664 41.07532227 30.61555664 41.0625 32.0625 C41.05798828 33.01189453 41.05347656 33.96128906 41.04882812 34.93945312 C41.03700128 37.29299531 41.01906521 39.64650532 41 42 C35.39 42 29.78 42 24 42 C24.0970598 46.34214875 24.19986186 50.68337018 24.31738281 55.02490234 C24.35560666 56.50105536 24.39047103 57.97729943 24.421875 59.45361328 C24.46766986 61.57878094 24.52563837 63.70332542 24.5859375 65.828125 C24.6173584 67.1059082 24.6487793 68.38369141 24.68115234 69.70019531 C24.97560698 72.7475528 25.22550817 74.53406053 27 77 C30.85450788 78.28483596 34.56524139 78.42211748 38.6015625 78.71875 C41 79 41 79 42 80 C42.12658222 82.65822657 42.18520214 85.27887424 42.1875 87.9375 C42.19974609 88.67935547 42.21199219 89.42121094 42.22460938 90.18554688 C42.22988478 92.12513629 42.12188902 94.0642371 42 96 C37.62675732 100.37324268 30.3790746 99.30563827 24.52832031 99.31689453 C17.69742932 99.19810918 11.80656375 98.13045875 6.39453125 93.6796875 C0.53051431 87.38575729 -0.44857387 79.84556013 -0.29296875 71.6875 C-0.28872391 70.83317383 -0.28447906 69.97884766 -0.28010559 69.09863281 C-0.26345703 66.39875318 -0.22583223 63.69964989 -0.1875 61 C-0.17243523 59.15756295 -0.15874998 57.31511407 -0.14648438 55.47265625 C-0.11359906 50.98147661 -0.06191456 46.49086944 0 42 C-1.28197266 42.01740234 -1.28197266 42.01740234 -2.58984375 42.03515625 C-3.69457031 42.04417969 -4.79929688 42.05320313 -5.9375 42.0625 C-7.03964844 42.07410156 -8.14179688 42.08570313 -9.27734375 42.09765625 C-12 42 -12 42 -13 41 C-13.07313567 38.46950598 -13.09247527 35.96695163 -13.0625 33.4375 C-13.05798828 32.72658203 -13.05347656 32.01566406 -13.04882812 31.28320312 C-13.03700864 29.52209987 -13.01907263 27.76103964 -13 26 C-8.33121544 23.8523591 -5.2627046 22.87711743 0 22 C0 14.74 0 7.48 0 0 Z " fill="#140F12" transform="translate(174,60)"/>
<path d="M0 0 C0.93199219 -0.00128906 1.86398438 -0.00257812 2.82421875 -0.00390625 C4.28794922 0.00189453 4.28794922 0.00189453 5.78125 0.0078125 C6.75707031 0.00394531 7.73289063 0.00007813 8.73828125 -0.00390625 C10.13626953 -0.00197266 10.13626953 -0.00197266 11.5625 0 C12.41908203 0.00112793 13.27566406 0.00225586 14.15820312 0.00341797 C16.28125 0.1328125 16.28125 0.1328125 18.28125 1.1328125 C18.30437465 10.76393962 18.32216571 20.39505724 18.33306217 30.02620602 C18.33829074 34.49786799 18.34538789 38.96951103 18.35668945 43.44116211 C18.36751929 47.75293223 18.37352704 52.06468409 18.37612724 56.37646675 C18.37798132 58.02517548 18.3816016 59.67388316 18.38698006 61.32258415 C18.39419178 63.62385122 18.39524089 65.9250419 18.39477539 68.22631836 C18.396996 69.5386998 18.39921661 70.85108124 18.40150452 72.20323181 C18.28125 75.1328125 18.28125 75.1328125 17.28125 76.1328125 C15.58566274 76.23213403 13.88599253 76.26361257 12.1875 76.265625 C11.15753906 76.26691406 10.12757813 76.26820313 9.06640625 76.26953125 C7.44025391 76.26373047 7.44025391 76.26373047 5.78125 76.2578125 C4.69714844 76.26167969 3.61304688 76.26554687 2.49609375 76.26953125 C1.46613281 76.26824219 0.43617188 76.26695312 -0.625 76.265625 C-1.57697266 76.26449707 -2.52894531 76.26336914 -3.50976562 76.26220703 C-5.71875 76.1328125 -5.71875 76.1328125 -6.71875 75.1328125 C-6.81318335 72.83227415 -6.83617128 70.52879077 -6.83227539 68.22631836 C-6.83242142 67.50440811 -6.83256744 66.78249786 -6.8327179 66.03871155 C-6.83201869 63.64166303 -6.82422595 61.24469127 -6.81640625 58.84765625 C-6.8145421 57.18998761 -6.81311818 55.53231843 -6.81211853 53.87464905 C-6.80829312 49.50327036 -6.79846265 45.13192469 -6.78741455 40.76055908 C-6.77720092 36.30326789 -6.77262101 31.84597139 -6.76757812 27.38867188 C-6.7568404 18.63670357 -6.73976371 9.88476214 -6.71875 1.1328125 C-4.28983818 -0.08164341 -2.71155557 0.00357052 0 0 Z " fill="#141012" transform="translate(136.71875,80.8671875)"/>
<path d="M0 0 C3.51223473 2.34148982 5.00016463 4.04121364 6.8125 7.875 C7.60376553 12.84059493 7.32861905 16.69222717 5.3125 21.3125 C2.09849153 24.60685869 -0.62890375 26.16873861 -5.1875 26.875 C-10.13142664 26.67724293 -13.33776267 25.56541158 -17.1875 22.4375 C-20.69695625 17.94100918 -20.85559824 13.3797531 -20.1875 7.875 C-16.10967565 -0.59432749 -8.75465874 -3.08987955 0 0 Z " fill="#140F12" transform="translate(149.1875,50.125)"/>
</svg>
